<?xml version="1.0" standalone="no"?>
<!DOCTYPE svg PUBLIC "-//W3C//DTD SVG 20010904//EN"
 "http://www.w3.org/TR/2001/REC-SVG-20010904/DTD/svg10.dtd">
<svg version="1.0" xmlns="http://www.w3.org/2000/svg"
 width="768.000000pt" height="512.000000pt" viewBox="0 0 768.000000 512.000000"
 preserveAspectRatio="xMidYMid meet">

<g transform="translate(0.000000,512.000000) scale(0.100000,-0.100000)"
fill="#000000" stroke="none">
<path d="M3990 4882 c0 -4 -62 -8 -138 -9 -132 -1 -141 -3 -232 -38 -173 -66
-184 -69 -188 -56 -2 7 -12 1 -24 -14 -24 -31 -32 -31 -46 -2 l-11 22 0 -22
c-1 -16 -6 -21 -16 -17 -11 5 -22 -9 -40 -49 -28 -61 -20 -57 -180 -88 -174
-34 -425 -123 -618 -221 -234 -119 -444 -275 -632 -469 -340 -352 -539 -734
-621 -1194 -13 -72 -18 -154 -18 -295 -1 -197 6 -270 26 -270 6 0 8 9 4 23 -3
12 -9 87 -12 167 -33 815 495 1642 1300 2035 226 110 415 174 649 218 l77 15
0 -28 c0 -15 6 -48 14 -73 15 -51 15 -52 -17 -36 l-22 12 20 -23 c11 -12 40
-36 65 -53 43 -30 44 -31 20 -38 -24 -6 -23 -6 10 -16 l35 -9 5 -130 c6 -142
10 -131 -63 -218 l-39 -45 40 -85 c30 -63 49 -89 71 -100 60 -32 164 -11 196
38 8 12 19 40 27 63 9 29 19 44 35 48 13 3 23 10 23 15 0 6 4 10 10 10 5 0 9
-3 8 -7 -4 -13 80 -121 103 -134 13 -6 52 -10 96 -7 68 3 77 6 100 32 21 25
24 37 21 88 -2 43 0 57 9 53 7 -2 48 11 90 29 128 54 120 55 127 -6 8 -66 -10
-190 -35 -239 -10 -20 -52 -73 -93 -118 -42 -46 -76 -87 -76 -92 0 -15 -16
-10 -73 25 -31 18 -78 39 -104 45 -26 7 -64 16 -83 21 -19 5 -70 12 -112 16
-74 6 -77 6 -71 -14 3 -15 -7 -33 -36 -64 l-41 -43 -20 24 c-11 13 -20 31 -21
40 0 12 -2 12 -9 -4 -13 -31 -12 -79 6 -161 15 -75 15 -77 -11 -158 -39 -121
-52 -139 -116 -155 -117 -29 -217 -86 -346 -195 -39 -34 -82 -68 -95 -77 -33
-24 -192 -304 -309 -545 l-101 -209 16 -70 c9 -38 32 -149 51 -245 52 -256
155 -773 155 -776 0 -1 17 -1 38 1 l37 5 -36 -11 c-29 -8 -36 -15 -32 -29 5
-18 7 -18 33 -5 16 8 44 41 63 72 42 68 67 93 125 122 23 12 42 27 42 34 0 7
32 53 71 102 40 50 96 123 127 162 30 40 56 73 59 73 3 0 1 -60 -2 -134 -4
-74 -5 -146 -1 -159 6 -24 8 -25 42 -15 49 13 64 8 211 -71 173 -94 195 -99
330 -78 59 9 179 18 265 21 l158 4 24 -76 c13 -43 27 -103 31 -136 7 -56 6
-59 -20 -80 -25 -20 -37 -22 -115 -18 -57 2 -90 0 -94 -7 -4 -6 -28 -10 -54
-9 l-47 1 50 7 c47 6 45 7 -28 8 -77 2 -147 -17 -147 -39 0 -5 28 -9 63 -9 34
0 116 -7 182 -15 276 -34 845 -43 881 -14 6 5 168 10 360 11 l349 3 0 95 c0
52 -6 140 -14 196 l-14 101 60 89 c33 49 78 123 99 164 37 72 38 78 38 175 0
55 -10 158 -22 230 -12 72 -35 234 -52 361 -16 126 -39 275 -50 330 -29 145
-87 322 -113 348 -12 11 -36 39 -52 60 -97 132 -220 233 -332 275 l-60 22 5
54 c6 69 -24 136 -101 226 -44 51 -57 74 -57 98 0 41 -19 76 -78 148 -27 32
-56 80 -65 107 -31 89 -145 216 -196 216 -33 0 -172 -39 -190 -53 -7 -6 -23
-34 -35 -62 -27 -60 -69 -111 -98 -121 -20 -6 -20 -11 -15 -98 9 -135 27 -187
87 -238 27 -24 64 -50 81 -60 l30 -16 -68 -51 c-117 -87 -152 -113 -267 -206
-61 -49 -130 -104 -152 -122 l-41 -32 -48 43 -49 42 55 37 c103 68 236 225
308 362 l36 70 -1 140 c-1 77 -5 197 -9 268 l-7 127 44 45 c30 29 54 45 70 45
l26 0 4 153 c5 181 -2 234 -37 265 -15 12 -21 22 -14 22 8 0 8 4 -1 15 -17 21
12 65 43 65 30 0 223 -37 322 -61 439 -109 868 -344 1162 -637 265 -266 320
-337 432 -559 168 -335 241 -632 241 -982 0 -72 3 -101 10 -91 5 8 10 69 10
135 0 206 -40 435 -111 644 -47 136 -164 379 -243 505 -31 48 -56 91 -56 95 0
3 22 4 48 3 l49 -4 51 -86 c228 -387 327 -732 325 -1132 0 -142 -5 -213 -22
-304 -20 -115 -21 -155 -2 -105 19 50 42 219 48 349 6 152 -7 323 -38 475 -44
218 -162 516 -281 713 -44 71 -53 94 -42 99 27 10 41 -5 102 -109 202 -342
299 -674 309 -1063 6 -218 -8 -352 -58 -543 -41 -158 -44 -169 -31 -157 17 16
61 162 82 274 42 218 46 410 14 661 -42 316 -127 547 -338 913 l-28 47 30 46
c41 62 48 108 24 171 -41 109 -149 234 -235 273 -51 24 -129 25 -187 5 l-43
-15 -99 81 c-143 117 -298 218 -466 302 -153 77 -330 152 -339 144 -6 -7 15
-18 143 -72 252 -107 512 -268 693 -429 43 -38 55 -66 30 -66 -5 0 -65 43
-132 96 -257 200 -544 352 -860 453 -104 33 -117 36 -117 22 0 -4 28 -16 63
-26 176 -49 461 -174 637 -280 90 -55 268 -184 354 -258 38 -33 39 -34 26 -70
l-12 -38 74 -77 c84 -89 213 -250 205 -258 -11 -11 -54 28 -137 122 -190 218
-466 421 -765 565 -273 131 -574 218 -866 251 -106 12 -107 12 -124 45 -11 20
-21 29 -25 22 -5 -7 -15 0 -28 18 -24 34 -99 89 -108 80 -4 -4 -14 -2 -23 2
-28 15 -121 40 -121 33z m410 -222 c0 -12 -33 -30 -55 -30 -13 0 -14 4 -5 20
11 20 60 29 60 10z m-296 -262 c4 -47 3 -74 -4 -78 -7 -4 -8 -23 -4 -50 6 -36
18 -54 73 -107 l66 -65 -94 -34 c-105 -38 -111 -39 -111 -20 0 16 -92 36 -159
35 -65 -1 -154 -22 -159 -36 -2 -8 5 -13 17 -13 32 0 25 -14 -14 -33 -44 -21
-71 -22 -79 -2 -9 25 -70 45 -135 45 -70 0 -92 -7 -84 -26 3 -9 -2 -14 -17
-14 l-21 0 20 26 c19 24 21 40 21 155 0 100 3 131 15 142 19 20 140 47 207 47
29 0 96 12 148 26 52 15 111 30 130 35 19 4 62 14 95 22 33 8 65 16 71 16 7 1
14 -28 18 -71z m2128 -211 c77 -46 175 -170 198 -252 15 -55 3 -109 -32 -143
l-23 -21 -72 97 c-40 53 -122 150 -183 214 -64 68 -106 119 -100 123 20 12
105 21 137 14 18 -4 52 -18 75 -32z m-166 -79 c109 -113 168 -181 235 -274 49
-68 59 -88 48 -95 -8 -5 -17 -9 -20 -9 -4 0 -46 52 -94 116 -48 63 -131 160
-184 215 -65 66 -94 102 -87 109 18 18 31 10 102 -62z m-6 -95 c75 -78 226
-270 219 -277 -2 -3 -16 -2 -31 1 -21 4 -42 26 -83 85 -31 43 -94 119 -140
168 -56 59 -83 94 -79 104 9 23 30 8 114 -81z m-2086 21 c34 -13 13 -19 -56
-15 -50 2 -67 6 -53 11 24 10 87 12 109 4z m-173 -40 c7 -8 20 -13 29 -11 9 2
25 -2 35 -9 16 -12 21 -11 36 2 12 11 23 13 36 6 10 -5 23 -7 30 -5 19 7 43
-39 43 -84 0 -54 -29 -75 -109 -81 -46 -3 -61 0 -84 18 -30 24 -87 115 -87
141 0 36 47 52 71 23z m-331 -8 c0 -18 -14 -34 -26 -29 -21 8 -17 33 6 33 11
0 20 -2 20 -4z m-40 -35 c0 -13 48 -19 59 -8 8 8 11 7 11 -1 0 -7 13 -12 30
-12 17 0 30 5 30 13 0 9 3 8 9 -2 5 -7 14 -10 20 -7 7 5 11 -7 11 -38 0 -36
-6 -52 -28 -77 -24 -27 -37 -33 -83 -37 -72 -6 -105 20 -125 98 -13 50 -13 56
3 68 19 14 63 16 63 3z m410 -402 c9 -5 -18 -9 -72 -9 -47 0 -95 -3 -105 -7
-10 -3 -15 -2 -10 3 28 30 143 39 187 13z m75 -33 c50 -21 45 -46 -20 -101
-54 -46 -55 -47 -80 -31 -32 21 -34 68 -3 90 21 15 20 15 -13 11 -19 -2 -55
-7 -82 -10 -46 -6 -47 -7 -32 -28 20 -29 19 -50 -4 -71 -19 -17 -21 -16 -60
34 -32 40 -39 56 -30 66 11 13 82 39 129 47 60 10 163 6 195 -7z m-147 -568
c22 -22 14 -48 -13 -48 -20 0 -25 5 -25 23 0 36 16 47 38 25z m382 -8 c13 -25
5 -40 -21 -40 -25 0 -35 25 -19 45 17 20 27 19 40 -5z m-198 -24 c3 2 8 -2 11
-11 4 -8 3 -15 0 -15 -11 0 -43 33 -43 44 0 6 7 3 14 -6 7 -10 15 -15 18 -12z
m218 -48 c0 -18 -9 -118 -20 -223 -42 -400 -50 -645 -26 -806 5 -32 4 -40 -3
-29 -6 8 -11 22 -11 31 0 9 -10 31 -23 50 -45 67 -57 162 -47 379 5 107 18
283 30 390 11 107 20 198 20 202 0 7 55 35 73 37 4 1 7 -14 7 -31z m-390 -62
c0 -40 -5 -131 -11 -202 -6 -71 -15 -262 -20 -424 -10 -324 -17 -430 -28 -430
-5 0 -11 23 -14 51 -4 28 -11 57 -17 64 -15 19 -33 268 -26 370 4 50 18 213
31 363 14 150 25 275 25 277 0 3 14 5 30 5 l30 0 0 -74z m813 -535 c6 -6 7
-17 4 -25 -5 -13 -25 -16 -110 -16 -57 0 -145 3 -195 6 -90 7 -92 8 -92 32 l0
25 192 -7 c106 -3 196 -10 201 -15z m-370 -1508 c-7 -2 -19 -2 -25 0 -7 3 -2
5 12 5 14 0 19 -2 13 -5z"/>
<path d="M2479 4577 c-611 -276 -1098 -788 -1334 -1402 -105 -274 -147 -492
-148 -765 0 -160 8 -250 21 -250 4 0 7 105 8 233 0 175 4 255 17 327 91 496
333 957 692 1315 203 204 423 359 715 505 135 67 136 68 129 75 -3 2 -48 -15
-100 -38z"/>
<path d="M2050 4254 c-316 -237 -559 -531 -740 -898 -122 -248 -180 -425 -216
-652 -25 -167 -22 -544 5 -544 5 0 6 84 3 188 -6 222 7 345 53 527 84 332 254
668 482 950 97 120 276 297 392 385 125 97 128 100 111 100 -8 0 -49 -26 -90
-56z"/>
<path d="M3730 3670 c-18 -12 -2 -12 25 0 13 6 15 9 5 9 -8 0 -22 -4 -30 -9z"/>
<path d="M6280 1194 c-78 -89 -220 -226 -317 -303 -67 -53 -42 -49 29 5 78 60
302 283 346 347 18 26 31 47 29 47 -2 0 -41 -43 -87 -96z"/>
<path d="M2882 988 c-34 -46 -73 -97 -88 -115 -25 -31 -46 -101 -26 -89 16 10
133 166 152 204 19 38 34 82 28 82 -2 0 -31 -37 -66 -82z"/>
<path d="M2979 928 c-30 -35 -87 -98 -126 -141 -75 -80 -85 -104 -57 -131 17
-18 54 -22 54 -6 0 5 32 63 72 127 99 164 121 203 116 209 -3 2 -29 -24 -59
-58z"/>
<path d="M3250 895 c-14 -8 -33 -14 -42 -15 -10 0 -18 -7 -18 -15 0 -8 -9 -15
-20 -15 -13 0 -18 5 -14 15 12 29 -12 14 -81 -53 -95 -90 -166 -172 -159 -183
3 -5 17 -9 31 -9 23 0 42 15 77 60 18 25 183 170 192 170 5 1 25 14 44 30 36
32 32 39 -10 15z m-200 -159 c0 -2 -8 -10 -17 -17 -16 -13 -17 -12 -4 4 13 16
21 21 21 13z"/>
<path d="M3360 789 c-51 -15 -161 -68 -191 -94 -15 -12 -48 -28 -73 -35 -41
-11 -45 -15 -33 -27 12 -12 30 -12 128 1 63 9 187 23 275 31 89 9 175 20 190
24 27 7 25 8 -19 13 -33 4 -66 18 -109 47 -34 22 -68 41 -77 41 -9 0 -25 2
-36 4 -11 3 -36 0 -55 -5z"/>
<path d="M4126 691 c-3 -5 18 -12 46 -16 260 -32 621 -131 788 -215 76 -38 88
-54 58 -73 -33 -21 -142 -43 -303 -61 -77 -9 -153 -18 -170 -21 l-30 -4 32 16
c37 19 66 68 62 103 -3 21 -13 27 -54 38 -300 75 -792 42 -845 -57 -17 -33
-12 -99 9 -120 31 -31 79 -36 326 -36 184 1 260 5 380 23 83 12 224 31 315 42
91 11 189 27 218 35 51 16 92 44 92 65 0 6 -22 24 -50 41 -27 17 -50 32 -50
35 0 2 12 10 28 19 27 16 27 16 -20 10 -40 -5 -72 2 -201 44 -175 57 -273 82
-472 116 -160 29 -152 28 -159 16z"/>
<path d="M1163 594 c5 -5 45 -11 89 -14 l80 -5 12 -36 13 -36 -66 4 c-36 2
-76 9 -88 15 -13 6 -26 8 -30 5 -3 -4 1 -7 10 -7 9 0 21 -8 26 -18 9 -17 28
-20 153 -26 79 -4 253 -13 388 -21 929 -55 956 -56 1107 -45 245 17 883 118
1043 165 l85 25 -65 -6 c-128 -11 -563 -75 -782 -115 -203 -37 -233 -41 -338
-36 -63 3 -132 11 -152 17 -41 12 -71 37 -63 51 4 5 -13 9 -37 9 -24 0 -108 5
-188 10 -80 5 -336 21 -570 35 -234 14 -472 28 -530 31 -61 4 -102 3 -97 -2z
m677 -54 c516 -28 560 -32 560 -42 0 -6 -32 -7 -77 -3 -43 3 -152 10 -243 15
-507 28 -716 43 -725 52 -7 6 14 7 60 3 39 -3 230 -14 425 -25z m716 -38 c6
-4 14 -20 18 -36 l7 -29 -68 7 c-67 7 -103 25 -103 53 0 10 18 13 68 13 37 0
72 -4 78 -8z"/>
<path d="M3356 571 c-4 -5 -3 -17 0 -26 6 -15 8 -14 25 1 11 9 19 21 19 26 0
11 -37 10 -44 -1z"/>
</g>
</svg>
